# xmcd CD database file
#
# Track frame offsets:
#	150
#	17221
#	34633
#	48448
#	64406
#	74212
#	90629
#	102951
#	122722
#	145479
#	171392
#	188880
#	200359
#	211766
#	231464
#	255151
#
# Disc length: 3592 seconds
#
# Revision: 1
# Processed by: cddbd v1.4PL0 Copyright (c) Steve Scherf et al.
# Submitted via: NotifyCDPlayer 1.60beta14
#
DISCID=f00e0610
DTITLE=Eric Clapton - Most Famous Hits The Album - Disc2
DYEAR=1900
DGENRE=
TTITLE0=(They Call It) Stormy Monday Blues
TTITLE1=Big Boss Man
TTITLE2=Jeff´s Blues
TTITLE3=Train Kept A Rollin
TTITLE4=Tribute To Elmore
TTITLE5=Little Red Rooster
TTITLE6=Highway 49
TTITLE7=Wang-Dang-Doodle
TTITLE8=Five Long Years
TTITLE9=She´s So Respectable
TTITLE10=Who Do You Love
TTITLE11=I Got Love If You Want It
TTITLE12=Good Morning Little Schoolgirl
TTITLE13=I´m A Man
TTITLE14=23 Hours Too Long
TTITLE15=Out On The Water Coast
EXTD=
EXTT0=
EXTT1=
EXTT2=
EXTT3=
EXTT4=
EXTT5=
EXTT6=
EXTT7=
EXTT8=
EXTT9=
EXTT10=
EXTT11=
EXTT12=
EXTT13=
EXTT14=
EXTT15=
PLAYORDER=
